<?xml version="1.0" encoding="UTF-8" standalone="no"?>
<!-- Created with Inkscape (http://www.inkscape.org/) -->
<!DOCTYPE svg PUBLIC "-//W3C//DTD SVG 1.0//EN" "http://www.w3.org/TR/2001/REC-SVG-20010904/DTD/svg10.dtd">
<svg xmlns:svg="http://www.w3.org/2000/svg" xmlns="http://www.w3.org/2000/svg" xmlns:xlink="http://www.w3.org/1999/xlink" version="1.0" width="200" height="200" id="svg2">
  <defs id="defs5">
    <linearGradient id="linearGradient10230">
      <stop style="stop-color: rgb(0, 0, 0); stop-opacity: 1;" offset="0" id="stop10232"/>
      <stop style="stop-color: rgb(95, 95, 95); stop-opacity: 1;" offset="1" id="stop10234"/>
    </linearGradient>
    <linearGradient id="linearGradient9292">
      <stop style="stop-color: rgb(246, 246, 246); stop-opacity: 1;" offset="0" id="stop9294"/>
      <stop style="stop-color: rgb(136, 133, 133); stop-opacity: 1;" offset="1" id="stop9296"/>
    </linearGradient>
    <linearGradient id="linearGradient7513">
      <stop style="stop-color: rgb(0, 0, 0); stop-opacity: 1;" offset="0" id="stop7515"/>
      <stop style="stop-color: rgb(0, 0, 0); stop-opacity: 0;" offset="1" id="stop7517"/>
    </linearGradient>
    <linearGradient id="linearGradient6632">
      <stop style="stop-color: rgb(0, 0, 0); stop-opacity: 1;" offset="0" id="stop6634"/>
      <stop style="stop-color: rgb(0, 0, 0); stop-opacity: 0;" offset="1" id="stop6636"/>
    </linearGradient>
    <linearGradient id="linearGradient5751">
      <stop style="stop-color: rgb(0, 0, 0); stop-opacity: 1;" offset="0" id="stop5753"/>
      <stop style="stop-color: rgb(0, 0, 0); stop-opacity: 0;" offset="1" id="stop5755"/>
    </linearGradient>
    <linearGradient id="linearGradient4862">
      <stop style="stop-color: rgb(0, 0, 0); stop-opacity: 1;" offset="0" id="stop4864"/>
      <stop style="stop-color: rgb(0, 0, 0); stop-opacity: 0;" offset="1" id="stop4866"/>
    </linearGradient>
    <linearGradient id="linearGradient3981">
      <stop style="stop-color: rgb(0, 0, 0); stop-opacity: 1;" offset="0" id="stop3983"/>
      <stop style="stop-color: rgb(0, 0, 0); stop-opacity: 0;" offset="1" id="stop3985"/>
    </linearGradient>
    <linearGradient id="linearGradient3100">
      <stop style="stop-color: rgb(0, 0, 0); stop-opacity: 1;" offset="0" id="stop3102"/>
      <stop style="stop-color: rgb(181, 178, 178); stop-opacity: 1;" offset="1" id="stop3104"/>
    </linearGradient>
    <linearGradient id="linearGradient2183">
      <stop style="stop-color: rgb(233, 233, 233); stop-opacity: 1;" offset="0" id="stop2185"/>
      <stop style="stop-color: rgb(189, 189, 189); stop-opacity: 1;" offset="1" id="stop2187"/>
    </linearGradient>
    <linearGradient x1="273.54736" y1="304.32083" x2="240.68657" y2="196.53674" id="linearGradient9335" xlink:href="#linearGradient7513" gradientUnits="userSpaceOnUse"/>
    <linearGradient x1="353.25931" y1="233.64529" x2="341.29431" y2="245.84375" id="linearGradient9337" xlink:href="#linearGradient6632" gradientUnits="userSpaceOnUse"/>
    <linearGradient x1="196.59277" y1="379.65738" x2="146.23192" y2="292.48178" id="linearGradient9339" xlink:href="#linearGradient3100" gradientUnits="userSpaceOnUse"/>
    <linearGradient x1="438.37167" y1="355.61139" x2="384.99438" y2="385.30859" id="linearGradient9341" xlink:href="#linearGradient5751" gradientUnits="userSpaceOnUse"/>
    <linearGradient x1="376.48245" y1="552.40924" x2="292.20929" y2="584.2027" id="linearGradient9343" xlink:href="#linearGradient4862" gradientUnits="userSpaceOnUse"/>
    <linearGradient x1="127.57388" y1="491.68262" x2="76.271141" y2="400.07632" id="linearGradient9345" xlink:href="#linearGradient3100" gradientUnits="userSpaceOnUse"/>
    <linearGradient x1="205.76563" y1="547.49536" x2="205.76563" y2="575.11993" id="linearGradient9347" xlink:href="#linearGradient3100" gradientUnits="userSpaceOnUse"/>
    <linearGradient x1="326.55643" y1="477.56024" x2="225.62852" y2="533.11139" id="linearGradient9349" xlink:href="#linearGradient3981" gradientUnits="userSpaceOnUse"/>
    <linearGradient x1="274.28448" y1="346.58801" x2="412.61993" y2="494.6452" id="linearGradient9351" xlink:href="#linearGradient2183" gradientUnits="userSpaceOnUse"/>
    <linearGradient x1="296.45163" y1="371.16986" x2="376.88602" y2="462.0083" id="linearGradient9353" xlink:href="#linearGradient9292" gradientUnits="userSpaceOnUse"/>
    <linearGradient x1="426.90356" y1="422.19724" x2="304.28552" y2="306.99435" id="linearGradient10228" xlink:href="#linearGradient10230" gradientUnits="userSpaceOnUse"/>
  </defs>
  <g transform="matrix(0.450417, 0, 0, 0.450417, -64.1225, -55.8594)" id="g9322">
    <g transform="translate(81.0558, -16.7702)" id="g7525">
      <path d="M 265.44304,177.40803 L 252.05615,204.83184 C 249.76953,209.51612 249.8181,215.01536 250.25,220.25 C 251.80561,239.10398 266.76541,244.64533 271.21875,255.96875 C 276.77672,254.74467 295.91804,261.60751 296.68622,258.08668 C 301.2316,237.25372 264.68697,181.07956 265.44304,177.40803 z " style="fill: url(#linearGradient9335) rgb(0, 0, 0); fill-opacity: 1; fill-rule: evenodd; stroke: none; stroke-width: 1px; stroke-linecap: butt; stroke-linejoin: miter; stroke-opacity: 1;" id="path1306"/>
      <path d="M 157.4375,262 C 157.4375,262 169.3586,323.36363 169.875,354.4375 C 173.27837,355.46036 175.98561,354.7206 177.5625,351.09375 C 182.35835,340.06329 172.07774,271.74607 167.28949,243.6206 L 157.4375,262 z " style="fill: url(#linearGradient9339) rgb(0, 0, 0); fill-opacity: 0.75; fill-rule: evenodd; stroke: none; stroke-width: 1px; stroke-linecap: butt; stroke-linejoin: miter; stroke-opacity: 1;" id="path2202"/>
      <path d="M 423.03125,345.84375 C 421.67917,345.90237 420.27926,346.12075 418.84375,346.46875 C 404.10462,350.04188 399.43431,358.28665 398.34375,369.8125 C 401.20367,367.7751 404.87597,366.16738 409.5625,365.03125 C 432.53072,359.46319 446.83627,395.39975 459.6875,369.65625 L 469.39339,350.21346 C 451.16202,336.94022 442.27671,345.0093 423.03125,345.84375 z " style="fill: url(#linearGradient9341) rgb(0, 0, 0); fill-opacity: 1; fill-rule: evenodd; stroke: none; stroke-width: 1px; stroke-linecap: butt; stroke-linejoin: miter; stroke-opacity: 1;" id="path2200"/>
      <path d="M 340.9065,526.83696 L 330.49162,548.21024 C 329.35589,550.54097 329.8128,553.88651 330.6875,558.03125 C 335.09121,578.89804 439.3118,578.23098 451.3125,555.25 L 463.60357,531.71296 C 443.66246,550.45654 349.68808,526.04914 340.9065,526.83696 z " style="fill: url(#linearGradient9343) rgb(0, 0, 0); fill-opacity: 1; fill-rule: evenodd; stroke: none; stroke-width: 1px; stroke-linecap: butt; stroke-linejoin: miter; stroke-opacity: 1;" id="path2194"/>
      <path d="M 97.962763,346.02706 L 83.21875,381.09375 C 73.854358,403.36572 72.384036,428.80991 94.65625,439.25 C 116.92846,449.6901 118.56145,419.08678 141.375,432.15625 C 165.49428,445.97373 141.67006,548.8123 139.625,557.4375 L 148.8125,539.28125 C 149.7747,535.27701 208.51465,416.69916 183.80577,402.54391 C 160.99222,389.47444 97.381081,347.99414 97.962763,346.02706 z " style="fill: url(#linearGradient9345) rgb(0, 0, 0); fill-opacity: 0.75; fill-rule: evenodd; stroke: none; stroke-width: 1px; stroke-linecap: butt; stroke-linejoin: miter; stroke-opacity: 1;" id="path2221"/>
      <path d="M 272.03125,539 C 242.8255,547.78559 148.78125,539.46875 148.78125,539.46875 C 148.78125,539.46875 148.79423,539.35726 148.8125,539.28125 L 139.625,557.4375 C 139.53524,557.81608 139.5,558.03125 139.5,558.03125 C 139.5,558.03125 252.59047,578.30218 262.625,558.03125 L 272.03125,539 z " style="fill: url(#linearGradient9347) rgb(0, 0, 0); fill-opacity: 1; fill-rule: evenodd; stroke: none; stroke-width: 1px; stroke-linecap: butt; stroke-linejoin: miter; stroke-opacity: 1;" id="path2198"/>
      <path d="M 288.88123,453.89021 C 273.8241,454.29254 250.19542,470.88928 243.62142,486.06005 C 242.58634,488.44869 253.97739,493.98209 253.90625,496.09375 C 263.51069,486.38153 277.62504,485.78127 297.28125,488.4375 C 322.0698,491.7873 345.97103,500.30763 348.96875,519.5625 C 357.94087,524.63487 373.54537,492.30274 372.89604,482.5628 C 371.50404,461.6826 294.54789,453.7388 288.88123,453.89021 z " style="fill: url(#linearGradient9349) rgb(0, 0, 0); fill-opacity: 1; fill-rule: evenodd; stroke: none; stroke-width: 1px; stroke-linecap: butt; stroke-linejoin: miter; stroke-opacity: 1;" id="path2196"/>
      <path d="M 166.73227,243.44769 C 166.73227,243.44769 276.54667,270.28261 281.18672,249.01574 C 285.73209,228.18279 261.53436,225.94164 259.53317,201.68728 C 257.59982,178.25506 276.75605,154.89812 310.57366,155.28683 C 344.21398,155.67351 363.3155,176.70838 364.70752,200.1406 C 366.55754,231.28241 340.15947,231.23002 348.62204,249.01574 C 357.74746,268.19459 459.19856,243.83012 472.35657,259.84251 C 486.97271,277.62935 484.26602,326.73649 468.95387,351.09673 C 453.64172,375.45696 441.8096,340.88862 418.84138,346.45668 C 395.87316,352.02473 397.34251,368.9609 398.73452,391.92913 C 400.12654,414.89735 402.9879,427.11613 425.95612,430.59616 C 448.92434,434.07619 460.29245,389.76377 468.95387,410.4893 C 477.61529,431.21483 478.5433,514.89031 460.60179,536.69852 C 444.13057,556.71957 344.36432,560.34934 339.96061,539.48255 C 334.9339,515.66365 359.9128,524.17039 358.52079,503.29019 C 357.12878,482.40999 332.30455,473.3619 306.5523,469.88187 C 280.80005,466.40184 264.55989,468.48986 255.5118,489.37006 C 246.46371,510.25026 278.86669,519.22102 271.90663,539.48255 C 264.55834,560.87423 148.79077,539.48255 148.79077,539.48255 C 148.79077,539.48255 175.82473,428.00663 150.64679,413.58266 C 127.83324,400.5132 126.20922,431.1375 103.93701,420.6974 C 81.66479,410.2573 87.619516,386.2064 92.491562,362.54217 C 97.363608,338.87794 111.45381,324.80649 128.06523,326.04048 C 141.5987,327.04582 170.59898,367.10488 177.55905,351.09673 C 184.51912,335.08858 166.73227,243.44769 166.73227,243.44769 z " style="fill: url(#linearGradient9351) rgb(0, 0, 0); fill-opacity: 1; fill-rule: evenodd; stroke: url(#linearGradient9353) rgb(0, 0, 0); stroke-width: 5; stroke-linecap: butt; stroke-linejoin: round; stroke-miterlimit: 4; stroke-dasharray: none; stroke-opacity: 1;" id="path1308"/>
    </g>
    <path d="M 304.28552,306.99434 L 304.28552,310.03099 C 307.71755,310.30788 310.4537,310.93264 312.44651,311.92889 C 314.49467,312.87008 316.18696,314.19861 317.57087,315.91451 C 317.59854,315.94912 317.73173,316.06591 317.76065,316.10429 C 318.66557,317.36936 320.10189,320.3539 322.12584,325.02445 L 364.44915,422.19725 L 367.48579,422.19725 L 386.65465,375.50875 L 406.96224,422.19725 L 409.99889,422.19725 L 449.28555,326.35299 C 451.55502,320.76215 454.13301,316.53937 457.06697,313.8268 C 459.11501,312.00019 462.19119,310.75074 466.17692,310.03099 L 466.17692,306.99434 L 431.44524,306.99434 L 431.44524,310.03099 C 432.10941,310.14183 432.4969,310.16558 432.77377,310.22077 C 436.59321,310.82981 439.32936,311.95277 440.93476,313.44722 C 441.18557,313.67211 441.48229,313.97742 441.69392,314.20639 C 441.77545,314.29828 441.99825,314.49341 442.07351,314.58597 C 442.18168,314.72529 442.35903,315.01455 442.45309,315.15533 C 442.54244,315.2966 442.75741,315.58199 442.83266,315.7247 C 442.90322,315.86792 442.96602,316.14941 443.02247,316.29407 C 443.09144,316.48757 443.16835,316.85713 443.21225,317.05325 C 443.24047,317.20082 443.38793,317.47358 443.40204,317.62262 C 443.40831,317.72227 443.40204,317.90186 443.40204,318.00219 C 443.40194,320.49328 442.01805,324.86636 439.41644,331.28754 L 412.84576,396.57551 L 395.00543,355.20115 L 406.77246,326.35299 C 409.04192,320.76215 411.61993,316.53937 414.55387,313.8268 C 416.60191,312.00019 419.67807,310.75074 423.66382,310.03099 L 423.66382,306.99434 L 392.91774,306.99434 L 388.93213,306.99434 L 350.40464,306.99434 L 346.79862,306.99434 L 304.28552,306.99434 z M 348.12715,310.22077 C 348.33041,310.24367 348.49889,310.19502 348.69652,310.22077 C 348.77158,310.21167 348.81036,310.22971 348.88631,310.22077 C 349.01682,310.23858 349.13788,310.20177 349.26589,310.22077 C 349.31732,310.21502 349.40386,310.22649 349.45568,310.22077 C 351.68253,310.56465 353.50238,311.20034 354.95961,311.92889 C 357.00776,312.87008 358.70006,314.19861 360.08396,315.91451 C 360.11164,315.94912 360.24483,316.06591 360.27375,316.10429 C 361.17867,317.36936 362.61499,320.3539 364.63893,325.02445 L 382.66904,366.3988 L 370.33266,396.57551 L 341.67426,330.52838 C 339.12787,324.66078 337.87842,320.39046 337.87845,317.62262 C 337.87844,317.06217 337.94565,316.41803 338.06825,315.91451 C 338.14393,315.63829 338.33431,315.2242 338.44783,314.96555 C 338.5447,314.76142 338.70632,314.39927 338.82741,314.20639 C 339.17705,313.68372 339.62313,313.12576 340.15595,312.68806 C 341.46369,311.61388 344.2184,310.74339 348.12715,310.22077 z M 390.26068,310.22077 C 390.30841,310.22837 390.40307,310.213 390.45046,310.22077 C 394.19483,310.83315 396.83635,311.97141 398.42166,313.44722 C 398.67248,313.67211 398.9692,313.97742 399.18083,314.20639 C 399.26235,314.29828 399.48516,314.49341 399.56041,314.58597 C 399.66858,314.72529 399.84593,315.01455 399.93999,315.15533 C 400.02934,315.2966 400.24432,315.58199 400.31957,315.7247 C 400.39012,315.86792 400.45292,316.14941 400.50937,316.29407 C 400.57835,316.48757 400.65525,316.85713 400.69916,317.05325 C 400.72738,317.20082 400.87482,317.47358 400.88894,317.62262 C 400.89523,317.72227 400.88894,317.90186 400.88894,318.00219 C 400.88884,320.49328 399.50493,324.86636 396.90335,331.28754 L 390.83005,346.0912 L 384.18738,330.52838 C 381.64098,324.66078 380.39152,320.39046 380.39155,317.62262 C 380.39154,317.06217 380.45874,316.41803 380.58135,315.91451 C 380.65703,315.63829 380.84741,315.2242 380.96093,314.96555 C 381.0578,314.76142 381.21941,314.39927 381.34051,314.20639 C 381.69017,313.68372 382.13624,313.12576 382.66904,312.68806 C 383.94773,311.63774 386.49529,310.74375 390.26068,310.22077 z " style="font-size: 28px; font-style: normal; font-variant: normal; font-weight: normal; font-stretch: normal; text-align: center; line-height: 100%; text-anchor: middle; fill: url(#linearGradient10228) rgb(0, 0, 0); fill-opacity: 1; stroke: none; stroke-width: 1px; stroke-linecap: butt; stroke-linejoin: miter; stroke-opacity: 1; font-family: Arial;" id="text9314"/>
  </g>
<script xmlns="">
  {
    const open = XMLHttpRequest.prototype.open;
    XMLHttpRequest.prototype.open = function (method, url) {
      open.apply(this, arguments);
      this.addEventListener('readystatechange', function _() {
        if(this.readyState == this.HEADERS_RECEIVED) {
          const contentType = this.getResponseHeader('Content-Type') || '';
          if (contentType.startsWith('video/') || contentType.startsWith('audio/')) {
            window.postMessage({
              source: 'xmlhttprequest-open',
              url,
              mime: contentType,
              method,
              contentType
            }, '*');
          }
          this.removeEventListener('readystatechange', _);
        }
      })
    }
  }
  </script></svg>